<?xml version="1.0" encoding="UTF-8"?>
<svg xmlns="http://www.w3.org/2000/svg" style="display:none" aria-hidden="true">
  <!--
    EasyStok icon sprite — Lucide (https://lucide.dev) v0.x, MIT License.
    Use via tag helper: <es-icon name="building-2" size="20" />
    Or directly: <svg class="es-icon" width="20" height="20" fill="none"
                      stroke="currentColor" stroke-width="2" stroke-linecap="round"
                      stroke-linejoin="round"><use href="/icons/sprite.svg#icon-building-2"/></svg>
  -->

  <symbol id="icon-layout-dashboard" viewBox="0 0 24 24">
    <rect width="7" height="9" x="3" y="3" rx="1"/>
    <rect width="7" height="5" x="14" y="3" rx="1"/>
    <rect width="7" height="9" x="14" y="12" rx="1"/>
    <rect width="7" height="5" x="3" y="16" rx="1"/>
  </symbol>

  <symbol id="icon-building-2" viewBox="0 0 24 24">
    <path d="M6 22V4a2 2 0 0 1 2-2h8a2 2 0 0 1 2 2v18Z"/>
    <path d="M6 12H4a2 2 0 0 0-2 2v8h4"/>
    <path d="M18 9h2a2 2 0 0 1 2 2v11h-4"/>
    <path d="M10 6h4"/>
    <path d="M10 10h4"/>
    <path d="M10 14h4"/>
    <path d="M10 18h4"/>
  </symbol>

  <symbol id="icon-ticket" viewBox="0 0 24 24">
    <path d="M2 9a3 3 0 0 1 0 6v2a2 2 0 0 0 2 2h16a2 2 0 0 0 2-2v-2a3 3 0 0 1 0-6V7a2 2 0 0 0-2-2H4a2 2 0 0 0-2 2Z"/>
    <path d="M13 5v2"/>
    <path d="M13 17v2"/>
    <path d="M13 11v2"/>
  </symbol>

  <symbol id="icon-list-checks" viewBox="0 0 24 24">
    <path d="m3 17 2 2 4-4"/>
    <path d="m3 7 2 2 4-4"/>
    <path d="M13 6h8"/>
    <path d="M13 12h8"/>
    <path d="M13 18h8"/>
  </symbol>

  <symbol id="icon-tag" viewBox="0 0 24 24">
    <path d="M12.586 2.586A2 2 0 0 0 11.172 2H4a2 2 0 0 0-2 2v7.172a2 2 0 0 0 .586 1.414l8.704 8.704a2.426 2.426 0 0 0 3.42 0l6.58-6.58a2.426 2.426 0 0 0 0-3.42z"/>
    <circle cx="7.5" cy="7.5" r=".5" fill="currentColor"/>
  </symbol>

  <symbol id="icon-receipt" viewBox="0 0 24 24">
    <path d="M4 2v20l2-1 2 1 2-1 2 1 2-1 2 1 2-1 2 1V2l-2 1-2-1-2 1-2-1-2 1-2-1-2 1Z"/>
    <path d="M16 8h-6a2 2 0 1 0 0 4h4a2 2 0 1 1 0 4H8"/>
    <path d="M12 17.5v-11"/>
  </symbol>

  <symbol id="icon-search" viewBox="0 0 24 24">
    <circle cx="11" cy="11" r="8"/>
    <path d="m21 21-4.3-4.3"/>
  </symbol>

  <symbol id="icon-stethoscope" viewBox="0 0 24 24">
    <path d="M11 2v2"/>
    <path d="M5 2v2"/>
    <path d="M5 3H4a2 2 0 0 0-2 2v4a6 6 0 0 0 12 0V5a2 2 0 0 0-2-2h-1"/>
    <path d="M8 15a6 6 0 0 0 12 0v-3"/>
    <circle cx="20" cy="10" r="2"/>
  </symbol>

  <symbol id="icon-bell" viewBox="0 0 24 24">
    <path d="M6 8a6 6 0 0 1 12 0c0 7 3 9 3 9H3s3-2 3-9"/>
    <path d="M10.3 21a1.94 1.94 0 0 0 3.4 0"/>
  </symbol>

  <symbol id="icon-trending-up" viewBox="0 0 24 24">
    <polyline points="22 7 13.5 15.5 8.5 10.5 2 17"/>
    <polyline points="16 7 22 7 22 13"/>
  </symbol>

  <symbol id="icon-smartphone" viewBox="0 0 24 24">
    <rect width="14" height="20" x="5" y="2" rx="2" ry="2"/>
    <path d="M12 18h.01"/>
  </symbol>

  <symbol id="icon-user" viewBox="0 0 24 24">
    <path d="M19 21v-2a4 4 0 0 0-4-4H9a4 4 0 0 0-4 4v2"/>
    <circle cx="12" cy="7" r="4"/>
  </symbol>

  <symbol id="icon-users" viewBox="0 0 24 24">
    <path d="M16 21v-2a4 4 0 0 0-4-4H6a4 4 0 0 0-4 4v2"/>
    <circle cx="9" cy="7" r="4"/>
    <path d="M22 21v-2a4 4 0 0 0-3-3.87"/>
    <path d="M16 3.13a4 4 0 0 1 0 7.75"/>
  </symbol>

  <symbol id="icon-settings" viewBox="0 0 24 24">
    <path d="M12.22 2h-.44a2 2 0 0 0-2 2v.18a2 2 0 0 1-1 1.73l-.43.25a2 2 0 0 1-2 0l-.15-.08a2 2 0 0 0-2.73.73l-.22.38a2 2 0 0 0 .73 2.73l.15.1a2 2 0 0 1 1 1.72v.51a2 2 0 0 1-1 1.74l-.15.09a2 2 0 0 0-.73 2.73l.22.38a2 2 0 0 0 2.73.73l.15-.08a2 2 0 0 1 2 0l.43.25a2 2 0 0 1 1 1.73V20a2 2 0 0 0 2 2h.44a2 2 0 0 0 2-2v-.18a2 2 0 0 1 1-1.73l.43-.25a2 2 0 0 1 2 0l.15.08a2 2 0 0 0 2.73-.73l.22-.39a2 2 0 0 0-.73-2.73l-.15-.08a2 2 0 0 1-1-1.74v-.5a2 2 0 0 1 1-1.74l.15-.09a2 2 0 0 0 .73-2.73l-.22-.38a2 2 0 0 0-2.73-.73l-.15.08a2 2 0 0 1-2 0l-.43-.25a2 2 0 0 1-1-1.73V4a2 2 0 0 0-2-2z"/>
    <circle cx="12" cy="12" r="3"/>
  </symbol>

  <symbol id="icon-external-link" viewBox="0 0 24 24">
    <path d="M15 3h6v6"/>
    <path d="M10 14 21 3"/>
    <path d="M18 13v6a2 2 0 0 1-2 2H5a2 2 0 0 1-2-2V8a2 2 0 0 1 2-2h6"/>
  </symbol>

  <symbol id="icon-log-out" viewBox="0 0 24 24">
    <path d="M9 21H5a2 2 0 0 1-2-2V5a2 2 0 0 1 2-2h4"/>
    <polyline points="16 17 21 12 16 7"/>
    <line x1="21" x2="9" y1="12" y2="12"/>
  </symbol>

  <symbol id="icon-store" viewBox="0 0 24 24">
    <path d="m2 7 4.41-4.41A2 2 0 0 1 7.83 2h8.34a2 2 0 0 1 1.42.59L22 7"/>
    <path d="M4 12v8a2 2 0 0 0 2 2h12a2 2 0 0 0 2-2v-8"/>
    <path d="M15 22v-4a2 2 0 0 0-2-2h-2a2 2 0 0 0-2 2v4"/>
    <path d="M2 7h20"/>
  </symbol>

  <symbol id="icon-check-circle" viewBox="0 0 24 24">
    <path d="M22 11.08V12a10 10 0 1 1-5.93-9.14"/>
    <polyline points="22 4 12 14.01 9 11.01"/>
  </symbol>

  <symbol id="icon-x-circle" viewBox="0 0 24 24">
    <circle cx="12" cy="12" r="10"/>
    <path d="m15 9-6 6"/>
    <path d="m9 9 6 6"/>
  </symbol>

  <symbol id="icon-check" viewBox="0 0 24 24">
    <polyline points="20 6 9 17 4 12"/>
  </symbol>

  <symbol id="icon-x" viewBox="0 0 24 24">
    <path d="M18 6 6 18"/>
    <path d="m6 6 12 12"/>
  </symbol>

  <symbol id="icon-alert-triangle" viewBox="0 0 24 24">
    <path d="m21.73 18-8-14a2 2 0 0 0-3.48 0l-8 14A2 2 0 0 0 4 21h16a2 2 0 0 0 1.73-3Z"/>
    <path d="M12 9v4"/>
    <path d="M12 17h.01"/>
  </symbol>

  <symbol id="icon-info" viewBox="0 0 24 24">
    <circle cx="12" cy="12" r="10"/>
    <path d="M12 16v-4"/>
    <path d="M12 8h.01"/>
  </symbol>

  <symbol id="icon-sun" viewBox="0 0 24 24">
    <circle cx="12" cy="12" r="4"/>
    <path d="M12 2v2"/>
    <path d="M12 20v2"/>
    <path d="m4.93 4.93 1.41 1.41"/>
    <path d="m17.66 17.66 1.41 1.41"/>
    <path d="M2 12h2"/>
    <path d="M20 12h2"/>
    <path d="m6.34 17.66-1.41 1.41"/>
    <path d="m19.07 4.93-1.41 1.41"/>
  </symbol>

  <symbol id="icon-moon" viewBox="0 0 24 24">
    <path d="M12 3a6 6 0 0 0 9 9 9 9 0 1 1-9-9Z"/>
  </symbol>

  <symbol id="icon-plus" viewBox="0 0 24 24">
    <path d="M5 12h14"/>
    <path d="M12 5v14"/>
  </symbol>

  <symbol id="icon-edit-2" viewBox="0 0 24 24">
    <path d="M17 3a2.85 2.83 0 1 1 4 4L7.5 20.5 2 22l1.5-5.5Z"/>
  </symbol>

  <symbol id="icon-trash-2" viewBox="0 0 24 24">
    <path d="M3 6h18"/>
    <path d="M19 6v14a2 2 0 0 1-2 2H7a2 2 0 0 1-2-2V6"/>
    <path d="M8 6V4a2 2 0 0 1 2-2h4a2 2 0 0 1 2 2v2"/>
    <line x1="10" x2="10" y1="11" y2="17"/>
    <line x1="14" x2="14" y1="11" y2="17"/>
  </symbol>

  <symbol id="icon-chevron-down" viewBox="0 0 24 24">
    <path d="m6 9 6 6 6-6"/>
  </symbol>

  <symbol id="icon-chevron-right" viewBox="0 0 24 24">
    <path d="m9 18 6-6-6-6"/>
  </symbol>

  <symbol id="icon-chevron-left" viewBox="0 0 24 24">
    <path d="m15 18-6-6 6-6"/>
  </symbol>

  <symbol id="icon-chevron-up" viewBox="0 0 24 24">
    <path d="m18 15-6-6-6 6"/>
  </symbol>

  <symbol id="icon-more-horizontal" viewBox="0 0 24 24">
    <circle cx="12" cy="12" r="1"/>
    <circle cx="19" cy="12" r="1"/>
    <circle cx="5" cy="12" r="1"/>
  </symbol>

  <symbol id="icon-download" viewBox="0 0 24 24">
    <path d="M21 15v4a2 2 0 0 1-2 2H5a2 2 0 0 1-2-2v-4"/>
    <polyline points="7 10 12 15 17 10"/>
    <line x1="12" x2="12" y1="15" y2="3"/>
  </symbol>

  <symbol id="icon-filter" viewBox="0 0 24 24">
    <polygon points="22 3 2 3 10 12.46 10 19 14 21 14 12.46 22 3"/>
  </symbol>

  <symbol id="icon-arrow-up-down" viewBox="0 0 24 24">
    <path d="m21 16-4 4-4-4"/>
    <path d="M17 20V4"/>
    <path d="m3 8 4-4 4 4"/>
    <path d="M7 4v16"/>
  </symbol>

  <symbol id="icon-eye" viewBox="0 0 24 24">
    <path d="M2 12s3-7 10-7 10 7 10 7-3 7-10 7-10-7-10-7Z"/>
    <circle cx="12" cy="12" r="3"/>
  </symbol>

  <symbol id="icon-menu" viewBox="0 0 24 24">
    <line x1="4" x2="20" y1="12" y2="12"/>
    <line x1="4" x2="20" y1="6" y2="6"/>
    <line x1="4" x2="20" y1="18" y2="18"/>
  </symbol>

  <symbol id="icon-arrow-right" viewBox="0 0 24 24">
    <path d="M5 12h14"/>
    <path d="m12 5 7 7-7 7"/>
  </symbol>

  <symbol id="icon-arrow-left" viewBox="0 0 24 24">
    <path d="m12 19-7-7 7-7"/>
    <path d="M19 12H5"/>
  </symbol>

  <symbol id="icon-panel-left-close" viewBox="0 0 24 24">
    <rect width="18" height="18" x="3" y="3" rx="2" ry="2"/>
    <line x1="9" x2="9" y1="3" y2="21"/>
    <path d="m16 15-3-3 3-3"/>
  </symbol>

  <symbol id="icon-panel-left-open" viewBox="0 0 24 24">
    <rect width="18" height="18" x="3" y="3" rx="2" ry="2"/>
    <line x1="9" x2="9" y1="3" y2="21"/>
    <path d="m14 9 3 3-3 3"/>
  </symbol>

  <symbol id="icon-zap" viewBox="0 0 24 24">
    <polygon points="13 2 3 14 12 14 11 22 21 10 12 10 13 2"/>
  </symbol>

  <symbol id="icon-corner-down-left" viewBox="0 0 24 24">
    <polyline points="9 10 4 15 9 20"/>
    <path d="M20 4v7a4 4 0 0 1-4 4H4"/>
  </symbol>

  <symbol id="icon-clock" viewBox="0 0 24 24">
    <circle cx="12" cy="12" r="10"/>
    <polyline points="12 6 12 12 16 14"/>
  </symbol>

  <symbol id="icon-briefcase" viewBox="0 0 24 24">
    <rect width="20" height="14" x="2" y="7" rx="2" ry="2"/>
    <path d="M16 21V5a2 2 0 0 0-2-2h-4a2 2 0 0 0-2 2v16"/>
  </symbol>

  <symbol id="icon-shield" viewBox="0 0 24 24">
    <path d="M20 13c0 5-3.5 7.5-7.66 8.95a1 1 0 0 1-.67-.01C7.5 20.5 4 18 4 13V6a1 1 0 0 1 1-1c2 0 4.5-1.2 6.24-2.72a1.17 1.17 0 0 1 1.52 0C14.51 3.81 17 5 19 5a1 1 0 0 1 1 1z"/>
  </symbol>

  <symbol id="icon-bookmark" viewBox="0 0 24 24">
    <path d="m19 21-7-4-7 4V5a2 2 0 0 1 2-2h10a2 2 0 0 1 2 2v16z"/>
  </symbol>
</svg>
